Jesse, a writer from the US, and Celine, a Frenchwoman working for an environment protection organization, acquainted nine years ago on the train from Budapest to Vienna, meet again when Jesse arrives in Paris for a reading of his new book. As they have only a few hours until his plane leaves, they stroll through Paris, talking about their experiences, views and whether they still love each other, although Jesse is already married with a kid.





General
Complete name : Before Sunset x264 720p L4.1 AC3 5.1-BoK.mkv
Format : Matroska
File size : 4.42 GiB
Duration : 1h 20mn
Overall bit rate : 7 881 Kbps
Encoded date : UTC 2008-02-23 14:01:18
Writing application : mkvmerge v2.1.0 ('Another Place To Fall') built on Aug 19 2007 13:40:07
Writing library : libebml v0.7.7 + libmatroska v0.8.1

Video
ID : 1
Format : AVC
Format/Info : Advanced Video Codec
Format profile : High@L4.1
Format settings, CABAC : Yes
Format settings, ReFrames : 6 frames
Muxing mode : Container profile=Unknown@4.1
Codec ID : V_MPEG4/ISO/AVC
Duration : 1h 20mn
Bit rate : 7 276 Kbps
Nominal bit rate : 7 430 Kbps
Width : 1 280 pixels
Height : 720 pixels
Display aspect ratio : 16:9
Frame rate : 23.976 fps
Resolution : 24 bits
Colorimetry : 4:2:0
Scan type : Progressive
Bits/(Pixel*Frame) : 0.329
Stream size : 4.08 GiB (92%)
Title : Before Sunset
Writing library : x264 core 58 svn-736M
Encoding settings : cabac=1 / ref=6 / deblock=1:-3:-3 / analyse=0x3:0x113 / me=umh / subme=7 / me-prepass=0 / brdo=1 / mixed_ref=1 / me_range=16 / chroma_me=1 / trellis=1 / 8x8dct=1 / cqm=2 / deadzone=21,11 / chroma_qp_offset=0 / threads=3 / nr=0 / decimate=1 / mbaff=0 / bframes=3 / b_pyramid=1 / b_adapt=1 / b_bias=0 / direct=3 / wpredb=1 / bime=1 / keyint=250 / keyint_min=25 / scenecut=40(pre) / rc=2pass / bitrate=7430 / ratetol=1.0 / rceq='blurCplx^(1-qComp)' / qcomp=1.00 / qpmin=10 / qpmax=51 / qpstep=4 / cplxblur=20.0 / qblur=0.5 / ip_ratio=1.40 / pb_ratio=1.30 / aq=1:0.5:13.0
Language : English

Audio
ID : 2
Format : AC-3
Format/Info : Audio Coding 3
Codec ID : A_AC3
Duration : 1h 20mn
Bit rate mode : Constant
Bit rate : 448 Kbps
Channel(s) : 6 channels
Channel positions : Front: L C R, Surround: L R, LFE
Sampling rate : 48.0 KHz
Stream size : 257 MiB (6%)
Title : AC3 5.1
Language : English

Text
ID : 3
Format : UTF-8
Codec ID : S_TEXT/UTF8
Codec ID/Info : UTF-8 Plain Text
Language : English